# xmcd CD database file
#
# Track frame offsets:
#	150
#	26726
#	42754
#	61683
#	85735
#	88135
#	120389
#	145385
#	181761
#	203441
#	222861
#	235461
#	239906
#	240453
#	262158
#
# Disc length: 3785 seconds
#
# Revision: 0
# Processed by: cddbd v1.5.1PL0 Copyright (c) Steve Scherf et al.
# Submitted via: CDex 1.51
#
DISCID=cf0ec70f
DTITLE=Tomati - Lord's Children
DYEAR=2005
DGENRE=Jazz
TTITLE0=Lord's Children
TTITLE1=Free Rider
TTITLE2=Brotha
TTITLE3=God Is Love!
TTITLE4=C'Mon! I'm Ready To Sing!
TTITLE5=Hey! Hey! Jaqueline!
TTITLE6=NY Mood
TTITLE7=Secret Changes
TTITLE8=Canal 5
TTITLE9=Heaven Knows
TTITLE10=Bright And Sweet
TTITLE11=Soul Force
TTITLE12=Flash Back
TTITLE13=Brotha (Acoustic)
TTITLE14=TNX!
EXTD=YEAR: 2005
EXTT0=
EXTT1=
EXTT2=
EXTT3=
EXTT4=
EXTT5=
EXTT6=
EXTT7=
EXTT8=
EXTT9=
EXTT10=
EXTT11=
EXTT12=
EXTT13=
EXTT14=
PLAYORDER=
